<svg xmlns="http://www.w3.org/2000/svg" viewBox="0 0 128 128"><defs><style>.cls-1{fill:#ff8d00;}.cls-2{fill:#fff;}</style></defs><title>icon</title><g id="Layer_2" data-name="Layer 2"><g id="Icon"><g id="Wrapper"><rect class="cls-1" width="128" height="128"/></g><g id="Mobili"><path class="cls-2" d="M54.89,59.51a10.31,10.31,0,1,0,10.3,10.31A10.31,10.31,0,0,0,54.89,59.51Zm0,16.65a6.34,6.34,0,1,1,6.34-6.34A6.34,6.34,0,0,1,54.89,76.16Z"/><path class="cls-2" d="M77.92,59.64a10.32,10.32,0,0,0-4.81,2.07V47.63h-4V69.48a10.52,10.52,0,0,0,9.66,10.64,10.3,10.3,0,0,0,10.93-9.63,10.14,10.14,0,0,0-.09-2.2A10.3,10.3,0,0,0,77.92,59.64Zm1.54,16.52a6.34,6.34,0,1,1,6.34-6.34A6.34,6.34,0,0,1,79.46,76.16Z"/><rect class="cls-2" x="104.03" y="47.63" width="3.96" height="32.5"/><rect class="cls-2" x="94.51" y="47.63" width="3.96" height="26.27"/><path class="cls-2" d="M96.5,76.41a2,2,0,1,0,2,2A2,2,0,0,0,96.5,76.41Z"/><rect class="cls-2" x="113.54" y="56.34" width="3.96" height="23.78"/><path class="cls-2" d="M115.52,51.59a2,2,0,1,0-2-2A2,2,0,0,0,115.52,51.59Z"/><path class="cls-2" d="M30.31,59.51A10.28,10.28,0,0,0,24,61.71,10.23,10.23,0,0,0,14.46,60V57.14h-4v23h4V64.35a6.22,6.22,0,0,1,3.17-.87A6.34,6.34,0,0,1,24,69.82v10.3h4V69.82a10.16,10.16,0,0,0-1.37-5.11,6.35,6.35,0,0,1,10.09,5.11v10.3h4V69.82A10.31,10.31,0,0,0,30.31,59.51Z"/></g></g></g></svg>